<?xml version="1.0" encoding="UTF-8" standalone="no"?>
<!DOCTYPE svg PUBLIC "-//W3C//DTD SVG 1.1//EN" "http://www.w3.org/Graphics/SVG/1.1/DTD/svg11.dtd">
<svg xmlns="http://www.w3.org/2000/svg" xmlns:xlink="http://www.w3.org/1999/xlink" version="1.1" width="545pt" height="435pt" viewBox="0 0 545 435">
<g enable-background="new">
<clipPath id="cp0">
<path transform="matrix(1,0,0,-1,0,435)" d="M 0 0 L 545 0 L 545 435 L 0 435 Z "/>
</clipPath>
<g clip-path="url(#cp0)">
<path transform="matrix(1,0,0,-1,0,435)" d="M 0 0 L 545 0 L 545 435 L 0 435 Z " fill="#ffffff"/>
<path transform="matrix(1,0,0,-1,0,435)" d="M 0 0 L 545 0 L 545 435 L 0 435 Z " fill="#ffffff"/>
<path transform="matrix(1,0,0,1,-317,-376)" stroke-width="1" stroke-linecap="round" stroke-linejoin="round" fill="none" stroke="#000000" d="M 468.4286 551.381 L 527.0759 617.6419 "/>
<path transform="matrix(1,0,0,-1,0,435)" d="M 214.0526 188.8652 L 211.7608 194.8494 L 208.3911 191.8669 Z M 214.0526 188.8652 "/>
<path transform="matrix(1,0,0,1,-317,-376)" stroke-width="1" stroke-linecap="butt" stroke-miterlimit="10" stroke-linejoin="miter" fill="none" stroke="#000000" d="M 531.0526 622.1348 L 528.7608 616.1506 L 525.3911 619.1331 Z M 531.0526 622.1348 "/>
<text xml:space="preserve" transform="matrix(1 0 0 1 -317 -376)" font-size="18" font-family="Inconsolata" font-weight="bold"><tspan y="396.0556" x="427 436 445 454 463">start</tspan></text>
<path transform="matrix(1,0,0,1,-317,-376)" stroke-width="1" stroke-linecap="round" stroke-linejoin="round" fill="none" stroke="#000000" d="M 449.1994 483.2937 L 448.8444 497.4834 "/>
<path transform="matrix(1,0,0,-1,0,435)" d="M 131.6944 307.5185 L 134.0937 313.4603 L 129.5951 313.5728 Z M 131.6944 307.5185 "/>
<path transform="matrix(1,0,0,1,-317,-376)" stroke-width="1" stroke-linecap="butt" stroke-miterlimit="10" stroke-linejoin="miter" fill="none" stroke="#000000" d="M 448.6944 503.4815 L 451.0937 497.5397 L 446.5951 497.4272 Z M 448.6944 503.4815 "/>
<path transform="matrix(1,0,0,1,-317,-376)" stroke-width="1" stroke-linecap="round" stroke-linejoin="round" fill="none" stroke="#000000" d="M 427.7274 551.381 L 412.6174 568.4636 "/>
<path transform="matrix(1,0,0,-1,0,435)" d="M 91.64215 238.0422 L 97.30268 241.0457 L 93.93204 244.0271 Z M 91.64215 238.0422 "/>
<path transform="matrix(1,0,0,1,-317,-376)" stroke-width="1" stroke-linecap="butt" stroke-miterlimit="10" stroke-linejoin="miter" fill="none" stroke="#000000" d="M 408.6422 572.9578 L 414.3027 569.9543 L 410.932 566.9729 Z M 408.6422 572.9578 "/>
<path transform="matrix(1,0,0,1,-317,-376)" stroke-width="1" stroke-linecap="round" stroke-linejoin="round" fill="none" stroke="#000000" d="M 395.2565 602.381 L 395.5988 621.0716 "/>
<path transform="matrix(1,0,0,-1,0,435)" d="M 78.70874 183.9294 L 80.84847 189.9696 L 76.34922 189.8872 Z M 78.70874 183.9294 "/>
<path transform="matrix(1,0,0,1,-317,-376)" stroke-width="1" stroke-linecap="butt" stroke-miterlimit="10" stroke-linejoin="miter" fill="none" stroke="#000000" d="M 395.7087 627.0706 L 397.8485 621.0304 L 393.3492 621.1128 Z M 395.7087 627.0706 "/>
<path transform="matrix(1,0,0,1,-317,-376)" stroke-width="1" stroke-linecap="round" stroke-linejoin="round" fill="none" stroke="#000000" d="M 560.6349 687.5575 L 560.6349 702.7319 "/>
<path transform="matrix(1,0,0,-1,0,435)" d="M 243.6349 102.2681 L 245.8849 108.2681 L 241.3849 108.2681 Z M 243.6349 102.2681 "/>
<path transform="matrix(1,0,0,1,-317,-376)" stroke-width="1" stroke-linecap="butt" stroke-miterlimit="10" stroke-linejoin="miter" fill="none" stroke="#000000" d="M 560.6349 708.7319 L 562.8849 702.7319 L 558.3849 702.7319 Z M 560.6349 708.7319 "/>
<path transform="matrix(1,0,0,1,-317,-376)" stroke-width="1" stroke-linecap="round" stroke-linejoin="round" fill="none" stroke="#000000" d="M 560.2968 738.6319 L 559.8812 755.8364 "/>
<path transform="matrix(1,0,0,-1,0,435)" d="M 242.7363 49.16532 L 245.1306 55.10924 L 240.6319 55.2179 Z M 242.7363 49.16532 "/>
<path transform="matrix(1,0,0,1,-317,-376)" stroke-width="1" stroke-linecap="butt" stroke-miterlimit="10" stroke-linejoin="miter" fill="none" stroke="#000000" d="M 559.7363 761.8347 L 562.1306 755.8908 L 557.6319 755.7821 Z M 559.7363 761.8347 "/>
<path transform="matrix(1,0,0,1,-317,-376)" stroke-width="1" stroke-linecap="round" stroke-linejoin="round" fill="none" stroke="#000000" d="M 450.7377 404.0556 L 450.6169 411.7946 "/>
<path transform="matrix(1,0,0,-1,0,435)" d="M 133.5294 393.6061 L 135.7166 399.1726 L 131.5171 399.2382 Z M 133.5294 393.6061 "/>
<path transform="matrix(1,0,0,1,-317,-376)" stroke-width="1" stroke-linecap="butt" stroke-miterlimit="10" stroke-linejoin="miter" fill="none" stroke="#000000" d="M 450.5294 417.3939 L 452.7166 411.8274 L 448.5171 411.7618 Z M 450.5294 417.3939 "/>
<text xml:space="preserve" transform="matrix(1 0 0 1 -317 -376)" font-size="12" font-family="Inconsolata"><tspan y="564.381" x="381.9563 387.9563 393.9563 399.9563">true</tspan></text>
<text xml:space="preserve" transform="matrix(1 0 0 1 -317 -376)" font-size="12" font-family="Inconsolata"><tspan y="566.381" x="485.5 491.5 497.5 503.5 509.5">false</tspan></text>
<path transform="matrix(1,0,0,-1,0,435)" d="M 379 25.5 L 449.5 25.5 L 449.5 40.5 L 379 40.5 Z " fill="#ffffff"/>
<text xml:space="preserve" transform="matrix(1 0 0 1 -317 -376)" font-size="13" font-family="Menlo"><tspan y="782.7341" x="617.7419 625.5692 633.3965 641.22378">_9: </tspan></text>
<text xml:space="preserve" transform="matrix(1 0 0 1 -317 -376)" font-size="13" font-family="Menlo"><tspan y="782.7341" x="649.0511">&#x0398;</tspan></text>
<text xml:space="preserve" transform="matrix(1 0 0 1 -317 -376)" font-size="13" font-family="Menlo"><tspan y="782.7341" x="656.8784 664.7057 672.53298 680.3602 688.1875">(_8) </tspan></text>
<text xml:space="preserve" transform="matrix(1 0 0 1 -317 -376)" font-size="13" font-family="Menlo"><tspan y="782.7341" x="696.0085">&#x222a;</tspan></text>
<text xml:space="preserve" transform="matrix(1 0 0 1 -317 -376)" font-size="13" font-family="Menlo"><tspan y="782.7341" x="703.8358 711.6631 719.49038 727.3176 735.1449 742.97219 750.79946 758.6267"> {b5[0]}</tspan></text>
<path transform="matrix(1,0,0,-1,0,435)" d="M 409.5 80.5 L 480 80.5 L 480 95.5 L 409.5 95.5 Z " fill="#ffffff"/>
<text xml:space="preserve" transform="matrix(1 0 0 1 -317 -376)" font-size="13" font-family="Menlo"><tspan y="727.6319" x="648 655.8273 663.65457 671.4818">_8: </tspan></text>
<text xml:space="preserve" transform="matrix(1 0 0 1 -317 -376)" font-size="13" font-family="Menlo"><tspan y="727.6319" x="679.3092">&#x0398;</tspan></text>
<text xml:space="preserve" transform="matrix(1 0 0 1 -317 -376)" font-size="13" font-family="Menlo"><tspan y="727.6319" x="687.1365 694.96377 702.791 710.6183 718.44558">(_7) </tspan></text>
<text xml:space="preserve" transform="matrix(1 0 0 1 -317 -376)" font-size="13" font-family="Menlo"><tspan y="727.6319" x="726.2666">&#x222a;</tspan></text>
<text xml:space="preserve" transform="matrix(1 0 0 1 -317 -376)" font-size="13" font-family="Menlo"><tspan y="727.6319" x="734.0939 741.92117 749.7484 757.5757 765.40298 773.2302 781.0575 788.88479"> {b4[0]}</tspan></text>
<path transform="matrix(1,0,0,-1,0,435)" d="M 406.5 128.5 L 422 128.5 L 422 143.5 L 406.5 143.5 Z " fill="#ffffff"/>
<path transform="matrix(1,0,0,-1,0,435)" d="M 429.5 128.5 L 484.5 128.5 L 484.5 143.5 L 429.5 143.5 Z " fill="#ffffff"/>
<text xml:space="preserve" transform="matrix(1 0 0 1 -317 -376)" font-size="13" font-family="Menlo"><tspan y="679.5575" x="645 652.8273 660.65457 668.4818">_7: </tspan></text>
<text xml:space="preserve" transform="matrix(1 0 0 1 -317 -376)" font-size="13" font-family="Menlo"><tspan y="679.5575" x="676.3092">&#x0398;</tspan></text>
<text xml:space="preserve" transform="matrix(1 0 0 1 -317 -376)" font-size="13" font-family="Menlo"><tspan y="679.5575" x="684.1365 691.96377 699.791 707.6183 715.44558">(_5) </tspan></text>
<text xml:space="preserve" transform="matrix(1 0 0 1 -317 -376)" font-size="13" font-family="Menlo"><tspan y="679.5575" x="723.2666">&#x222a;</tspan></text>
<text xml:space="preserve" transform="matrix(1 0 0 1 -317 -376)" font-size="13" font-family="Menlo"><tspan y="679.5575" x="731.0939"> </tspan></text>
<text xml:space="preserve" transform="matrix(1 0 0 1 -317 -376)" font-size="13" font-family="Menlo"><tspan y="679.5575" x="738.9199">&#x0398;</tspan></text>
<text xml:space="preserve" transform="matrix(1 0 0 1 -317 -376)" font-size="13" font-family="Menlo"><tspan y="679.5575" x="746.7466 754.57388 762.4011 770.2284 778.05569">(_6) </tspan></text>
<text xml:space="preserve" transform="matrix(1 0 0 1 -317 -376)" font-size="13" font-family="Menlo"><tspan y="679.5575" x="785.8831">&#x222a;</tspan></text>
<text xml:space="preserve" transform="matrix(1 0 0 1 -317 -376)" font-size="13" font-family="Menlo"><tspan y="679.5575" x="793.7104"> </tspan></text>
<text xml:space="preserve" transform="matrix(1 0 0 1 -317 -376)" font-size="13" font-family="Menlo"><tspan y="679.5575" x="801.5332 809.3605 817.18777 825.015 832.8423 840.66958 848.4968">{b3[2]}</tspan></text>
<path transform="matrix(1,0,0,-1,0,435)" d="M 398.5 148.5 L 414 148.5 L 414 163.5 L 398.5 163.5 Z " fill="#ffffff"/>
<text xml:space="preserve" transform="matrix(1 0 0 1 -317 -376)" font-size="13" font-family="Menlo"><tspan y="659.4702" x="645 652.8273 660.65457 668.4818">_6: </tspan></text>
<text xml:space="preserve" transform="matrix(1 0 0 1 -317 -376)" font-size="13" font-family="Menlo"><tspan y="659.4702" x="676.3092">&#x0398;</tspan></text>
<text xml:space="preserve" transform="matrix(1 0 0 1 -317 -376)" font-size="13" font-family="Menlo"><tspan y="659.4702" x="684.1365 691.96377 699.791 707.6183">(k) </tspan></text>
<text xml:space="preserve" transform="matrix(1 0 0 1 -317 -376)" font-size="13" font-family="Menlo"><tspan y="659.4702" x="715.4399">&#x222a;</tspan></text>
<text xml:space="preserve" transform="matrix(1 0 0 1 -317 -376)" font-size="13" font-family="Menlo"><tspan y="659.4702" x="723.2672"> </tspan></text>
<text xml:space="preserve" transform="matrix(1 0 0 1 -317 -376)" font-size="13" font-family="Menlo"><tspan y="659.4702" x="731.0933 738.92068 746.7479 754.5752 762.40249 770.22976 778.057">{b3[1]}</tspan></text>
<path transform="matrix(1,0,0,-1,0,435)" d="M 406.5 167 L 422 167 L 422 182 L 406.5 182 Z " fill="#ffffff"/>
<text xml:space="preserve" transform="matrix(1 0 0 1 -317 -376)" font-size="13" font-family="Menlo"><tspan y="640.9702" x="645 652.8273 660.65457 668.4818">_5: </tspan></text>
<text xml:space="preserve" transform="matrix(1 0 0 1 -317 -376)" font-size="13" font-family="Menlo"><tspan y="640.9702" x="676.3092">&#x0398;</tspan></text>
<text xml:space="preserve" transform="matrix(1 0 0 1 -317 -376)" font-size="13" font-family="Menlo"><tspan y="640.9702" x="684.1365 691.96377 699.791 707.6183 715.44558">(*h) </tspan></text>
<text xml:space="preserve" transform="matrix(1 0 0 1 -317 -376)" font-size="13" font-family="Menlo"><tspan y="640.9702" x="723.2666">&#x222a;</tspan></text>
<text xml:space="preserve" transform="matrix(1 0 0 1 -317 -376)" font-size="13" font-family="Menlo"><tspan y="640.9702" x="731.0939"> </tspan></text>
<text xml:space="preserve" transform="matrix(1 0 0 1 -317 -376)" font-size="13" font-family="Menlo"><tspan y="640.9702" x="738.9199 746.7472 754.57449 762.40176 770.229 778.0563 785.88357">{b3[0]}</tspan></text>
<path transform="matrix(1,0,0,-1,0,435)" d="M 153.5 210.0308 L 484.3931 210.0308 L 484.3931 235.0308 L 153.5 235.0308 Z " fill="#ffffff"/>
<path transform="matrix(1,0,0,-1,0,435)" d="M 237 215 L 252.5 215 L 252.5 230 L 237 230 Z " fill="#ffffff"/>
<path transform="matrix(1,0,0,-1,0,435)" d="M 260 215 L 307 215 L 307 230 L 260 230 Z " fill="#ffffff"/>
<path transform="matrix(1,0,0,-1,0,435)" d="M 315 215 L 479.5 215 L 479.5 230 L 315 230 Z " fill="#ffffff"/>
<text xml:space="preserve" transform="matrix(1 0 0 1 -317 -376)" font-size="13" font-family="Menlo"><tspan y="592.9692" x="475.5 483.3273 491.1546 498.9819">*h: </tspan></text>
<text xml:space="preserve" transform="matrix(1 0 0 1 -317 -376)" font-size="13" font-family="Menlo"><tspan y="592.9692" x="506.8092">&#x0398;</tspan></text>
<text xml:space="preserve" transform="matrix(1 0 0 1 -317 -376)" font-size="13" font-family="Menlo"><tspan y="592.9692" x="514.6365 522.46377 530.291 538.1183 545.94558">(*h) </tspan></text>
<text xml:space="preserve" transform="matrix(1 0 0 1 -317 -376)" font-size="13" font-family="Menlo"><tspan y="592.9692" x="553.7666">&#x222a;</tspan></text>
<text xml:space="preserve" transform="matrix(1 0 0 1 -317 -376)" font-size="13" font-family="Menlo"><tspan y="592.9692" x="561.5939"> </tspan></text>
<text xml:space="preserve" transform="matrix(1 0 0 1 -317 -376)" font-size="13" font-family="Menlo"><tspan y="592.9692" x="569.4199">&#x0398;</tspan></text>
<text xml:space="preserve" transform="matrix(1 0 0 1 -317 -376)" font-size="13" font-family="Menlo"><tspan y="592.9692" x="577.2466 585.07388 592.9011 600.7284">(k) </tspan></text>
<text xml:space="preserve" transform="matrix(1 0 0 1 -317 -376)" font-size="13" font-family="Menlo"><tspan y="592.9692" x="608.5558">&#x222a;</tspan></text>
<text xml:space="preserve" transform="matrix(1 0 0 1 -317 -376)" font-size="13" font-family="Menlo"><tspan y="592.9692" x="616.3831"> </tspan></text>
<text xml:space="preserve" transform="matrix(1 0 0 1 -317 -376)" font-size="13" font-family="Menlo"><tspan y="592.9692" x="624.2065">&#x0398;</tspan></text>
<text xml:space="preserve" transform="matrix(1 0 0 1 -317 -376)" font-size="13" font-family="Menlo"><tspan y="592.9692" x="632.0332 639.8605 647.68777 655.515 663.3423">(_4) </tspan></text>
<text xml:space="preserve" transform="matrix(1 0 0 1 -317 -376)" font-size="13" font-family="Menlo"><tspan y="592.9692" x="671.1697">&#x222a;</tspan></text>
<text xml:space="preserve" transform="matrix(1 0 0 1 -317 -376)" font-size="13" font-family="Menlo"><tspan y="592.9692" x="678.997 686.82437 694.6516 702.4789 710.30618 718.1334 725.9607 733.78799 741.61526 749.4425 757.2698 765.09707 772.9243 780.7516 788.57888"> {b1[1], b2[0]}</tspan></text>
<path transform="matrix(1,0,0,-1,0,435)" d="M 275 284 L 290.5 284 L 290.5 299 L 275 299 Z " fill="#ffffff"/>
<text xml:space="preserve" transform="matrix(1 0 0 1 -317 -376)" font-size="13" font-family="Menlo"><tspan y="524" x="513.5 521.3273 529.15457 536.9818">_4: </tspan></text>
<text xml:space="preserve" transform="matrix(1 0 0 1 -317 -376)" font-size="13" font-family="Menlo"><tspan y="524" x="544.8092">&#x0398;</tspan></text>
<text xml:space="preserve" transform="matrix(1 0 0 1 -317 -376)" font-size="13" font-family="Menlo"><tspan y="524" x="552.6365 560.46377 568.291 576.1183 583.94558">(_3) </tspan></text>
<text xml:space="preserve" transform="matrix(1 0 0 1 -317 -376)" font-size="13" font-family="Menlo"><tspan y="524" x="591.7666">&#x222a;</tspan></text>
<text xml:space="preserve" transform="matrix(1 0 0 1 -317 -376)" font-size="13" font-family="Menlo"><tspan y="524" x="599.5939"> </tspan></text>
<text xml:space="preserve" transform="matrix(1 0 0 1 -317 -376)" font-size="13" font-family="Menlo"><tspan y="524" x="607.4199 615.2472 623.07449 630.90176 638.729 646.5563 654.38357">{b1[0]}</tspan></text>
<path transform="matrix(1,0,0,-1,0,435)" d="M 338.5 333.5 L 354 333.5 L 354 348.5 L 338.5 348.5 Z " fill="#ffffff"/>
<path transform="matrix(1,0,0,-1,0,435)" d="M 362 333.5 L 417 333.5 L 417 348.5 L 362 348.5 Z " fill="#ffffff"/>
<text xml:space="preserve" transform="matrix(1 0 0 1 -317 -376)" font-size="13" font-family="Menlo"><tspan y="474.5" x="577.2619 585.08926 592.9165 600.7438">_3: </tspan></text>
<text xml:space="preserve" transform="matrix(1 0 0 1 -317 -376)" font-size="13" font-family="Menlo"><tspan y="474.5" x="608.5711">&#x0398;</tspan></text>
<text xml:space="preserve" transform="matrix(1 0 0 1 -317 -376)" font-size="13" font-family="Menlo"><tspan y="474.5" x="616.3984 624.2257 632.053 639.88027 647.7075">(_1) </tspan></text>
<text xml:space="preserve" transform="matrix(1 0 0 1 -317 -376)" font-size="13" font-family="Menlo"><tspan y="474.5" x="655.5285">&#x222a;</tspan></text>
<text xml:space="preserve" transform="matrix(1 0 0 1 -317 -376)" font-size="13" font-family="Menlo"><tspan y="474.5" x="663.3558"> </tspan></text>
<text xml:space="preserve" transform="matrix(1 0 0 1 -317 -376)" font-size="13" font-family="Menlo"><tspan y="474.5" x="671.1818">&#x0398;</tspan></text>
<text xml:space="preserve" transform="matrix(1 0 0 1 -317 -376)" font-size="13" font-family="Menlo"><tspan y="474.5" x="679.0085 686.8358 694.6631 702.49038 710.3176">(_2) </tspan></text>
<text xml:space="preserve" transform="matrix(1 0 0 1 -317 -376)" font-size="13" font-family="Menlo"><tspan y="474.5" x="718.145">&#x222a;</tspan></text>
<text xml:space="preserve" transform="matrix(1 0 0 1 -317 -376)" font-size="13" font-family="Menlo"><tspan y="474.5" x="725.9723"> </tspan></text>
<text xml:space="preserve" transform="matrix(1 0 0 1 -317 -376)" font-size="13" font-family="Menlo"><tspan y="474.5" x="733.7951 741.62246 749.4497 757.277 765.10427 772.9315 780.7588">{b0[3]}</tspan></text>
<path transform="matrix(1,0,0,-1,0,435)" d="M 299.5 352 L 323 352 L 323 367 L 299.5 367 Z " fill="#ffffff"/>
<path transform="matrix(1,0,0,-1,0,435)" d="M 330.5 352 L 346 352 L 346 367 L 330.5 367 Z " fill="#ffffff"/>
<text xml:space="preserve" transform="matrix(1 0 0 1 -317 -376)" font-size="13" font-family="Menlo"><tspan y="456" x="577.2619 585.08926 592.9165 600.7438">_2: </tspan></text>
<text xml:space="preserve" transform="matrix(1 0 0 1 -317 -376)" font-size="13" font-family="Menlo"><tspan y="456" x="608.5711">&#x0398;</tspan></text>
<text xml:space="preserve" transform="matrix(1 0 0 1 -317 -376)" font-size="13" font-family="Menlo"><tspan y="456" x="616.3952 624.22256 632.0498">(k)</tspan></text>
<text xml:space="preserve" transform="matrix(1 0 0 1 -317 -376)" font-size="13" font-family="Menlo"><tspan y="456" x="639.8752"> </tspan></text>
<text xml:space="preserve" transform="matrix(1 0 0 1 -317 -376)" font-size="13" font-family="Menlo"><tspan y="456" x="647.7018">&#x222a;</tspan></text>
<text xml:space="preserve" transform="matrix(1 0 0 1 -317 -376)" font-size="13" font-family="Menlo"><tspan y="456" x="655.5291"> </tspan></text>
<text xml:space="preserve" transform="matrix(1 0 0 1 -317 -376)" font-size="13" font-family="Menlo"><tspan y="456" x="663.3552 671.1825 679.00979 686.83706 694.6643 702.4916 710.31887">{b0[1]}</tspan></text>
<path transform="matrix(1,0,0,-1,0,435)" d="M 299.5 369.5 L 331 369.5 L 331 384.5 L 299.5 384.5 Z " fill="#ffffff"/>
<path transform="matrix(1,0,0,-1,0,435)" d="M 338.5 369.5 L 354 369.5 L 354 384.5 L 338.5 384.5 Z " fill="#ffffff"/>
<text xml:space="preserve" transform="matrix(1 0 0 1 -317 -376)" font-size="13" font-family="Menlo"><tspan y="438.2659" x="577.2619 585.08926 592.9165 600.7438">_1: </tspan></text>
<text xml:space="preserve" transform="matrix(1 0 0 1 -317 -376)" font-size="13" font-family="Menlo"><tspan y="438.2659" x="608.5711">&#x0398;</tspan></text>
<text xml:space="preserve" transform="matrix(1 0 0 1 -317 -376)" font-size="13" font-family="Menlo"><tspan y="438.2659" x="616.3952 624.22256 632.0498 639.8771">(*h)</tspan></text>
<text xml:space="preserve" transform="matrix(1 0 0 1 -317 -376)" font-size="13" font-family="Menlo"><tspan y="438.2659" x="647.7018"> </tspan></text>
<text xml:space="preserve" transform="matrix(1 0 0 1 -317 -376)" font-size="13" font-family="Menlo"><tspan y="438.2659" x="655.5285">&#x222a;</tspan></text>
<text xml:space="preserve" transform="matrix(1 0 0 1 -317 -376)" font-size="13" font-family="Menlo"><tspan y="438.2659" x="663.3558"> </tspan></text>
<text xml:space="preserve" transform="matrix(1 0 0 1 -317 -376)" font-size="13" font-family="Menlo"><tspan y="438.2659" x="671.1818 679.00918 686.8364 694.6637 702.49099 710.31826 718.1455 725.9728">{b0[0]} </tspan></text>
<path transform="matrix(1,0,0,1,-317,-376)" stroke-width="1" stroke-linecap="round" stroke-linejoin="round" fill="none" stroke="#000000" d="M 332.5 419.2937 L 567.5 419.2937 L 567.5 483.2937 L 332.5 483.2937 Z "/>
<text xml:space="preserve" transform="matrix(1 0 0 1 -317 -376)" font-size="18" font-family="Inconsolata"><tspan y="439.2937" x="337.5 346.5 355.5 364.5 373.5 382.5 391.5 400.5 409.5 418.5 427.5 436.5 445.5">_1 = &#x0026;&#x2019;1 (*h)</tspan></text>
<text xml:space="preserve" transform="matrix(1 0 0 1 -317 -376)" font-size="18" font-family="Inconsolata"><tspan y="457.2937" x="337.5 346.5 355.5 364.5 373.5 382.5 391.5 400.5 409.5 418.5">_2 = &#x0026;&#x2019;2 k</tspan></text>
<text xml:space="preserve" transform="matrix(1 0 0 1 -317 -376)" font-size="18" font-family="Inconsolata"><tspan y="475.2937" x="337.5 346.5 355.5 364.5 373.5 382.5 391.5 400.5 409.5 418.5 427.5 436.5 445.5 454.5 463.5 472.5 481.5 490.5 499.5 508.5 517.5 526.5 535.5 544.5 553.5">_3 = contains_key(_1, _2)</tspan></text>
<text xml:space="preserve" transform="matrix(1 0 0 1 -317 -376)" font-size="16" font-family="Inconsolata"><tspan y="414.2937" x="323.5 331.5 339.5"> b0</tspan></text>
<path transform="matrix(1,0,0,1,-317,-376)" stroke-width="1" stroke-linecap="round" stroke-linejoin="round" fill="none" stroke="#000000" d="M 393.5714 505.381 L 502.5714 505.381 L 502.5714 551.381 L 393.5714 551.381 Z "/>
<text xml:space="preserve" transform="matrix(1 0 0 1 -317 -376)" font-size="18" font-family="Inconsolata"><tspan y="525.381" x="398.5714 407.5714 416.5714 425.5714 434.5714">_4 = </tspan></text>
<text xml:space="preserve" transform="matrix(1 0 0 1 -317 -376)" font-size="18" font-family="Inconsolata" font-weight="bold"><tspan y="525.381" x="443.5714 452.5714 461.5714 470.5714">not </tspan></text>
<text xml:space="preserve" transform="matrix(1 0 0 1 -317 -376)" font-size="18" font-family="Inconsolata"><tspan y="525.381" x="479.5714 488.5714">_3</tspan></text>
<text xml:space="preserve" transform="matrix(1 0 0 1 -317 -376)" font-size="18" font-family="Inconsolata" font-weight="bold"><tspan y="543.381" x="398.5714 407.5714 416.5714 425.5714 434.5714 443.5714">switch</tspan></text>
<text xml:space="preserve" transform="matrix(1 0 0 1 -317 -376)" font-size="18" font-family="Inconsolata"><tspan y="543.381" x="452.5714 461.5714 470.5714"> _4</tspan></text>
<text xml:space="preserve" transform="matrix(1 0 0 1 -317 -376)" font-size="16" font-family="Inconsolata"><tspan y="502.2937" x="405.5 413.5">b1</tspan></text>
<path transform="matrix(1,0,0,1,-317,-376)" stroke-width="1" stroke-linecap="round" stroke-linejoin="round" fill="none" stroke="#000000" d="M 322.5 574.381 L 467.5 574.381 L 467.5 602.381 L 322.5 602.381 Z "/>
<text xml:space="preserve" transform="matrix(1 0 0 1 -317 -376)" font-size="18" font-family="Inconsolata"><tspan y="594.381" x="327.5 336.5 345.5 354.5 363.5 372.5 381.5 390.5 399.5 408.5 417.5 426.5 435.5 444.5 453.5">insert(h, k, 0)</tspan></text>
<text xml:space="preserve" transform="matrix(1 0 0 1 -317 -376)" font-size="16" font-family="Inconsolata"><tspan y="570.881" x="322.5 330.5">b2</tspan></text>
<path transform="matrix(1,0,0,-1,0,435)" d="M 166.6349 123.4425 L 320.6349 123.4425 L 320.6349 187.4425 L 166.6349 187.4425 Z " fill="#ffffff"/>
<path transform="matrix(1,0,0,1,-317,-376)" stroke-width="1" stroke-linecap="round" stroke-linejoin="round" fill="none" stroke="#000000" d="M 483.6349 623.5575 L 637.6349 623.5575 L 637.6349 687.5575 L 483.6349 687.5575 Z "/>
<text xml:space="preserve" transform="matrix(1 0 0 1 -317 -376)" font-size="18" font-family="Inconsolata"><tspan y="643.5575" x="488.6349 497.6349 506.6349 515.6349 524.6349 533.6349 542.6349 551.6349 560.6349 569.6349 578.6349 587.6349 596.6349">_5 = &#x0026;&#x2019;3 (*h)</tspan></text>
<text xml:space="preserve" transform="matrix(1 0 0 1 -317 -376)" font-size="18" font-family="Inconsolata"><tspan y="661.5575" x="488.6349 497.6349 506.6349 515.6349 524.6349 533.6349 542.6349 551.6349 560.6349 569.6349">_6 = &#x0026;&#x2019;4 k</tspan></text>
<text xml:space="preserve" transform="matrix(1 0 0 1 -317 -376)" font-size="18" font-family="Inconsolata"><tspan y="679.5575" x="488.6349 497.6349 506.6349 515.6349 524.6349 533.6349 542.6349 551.6349 560.6349 569.6349 578.6349 587.6349 596.6349 605.6349 614.6349 623.6349">_7 = get(_5, _6)</tspan></text>
<text xml:space="preserve" transform="matrix(1 0 0 1 -317 -376)" font-size="16" font-family="Inconsolata"><tspan y="618.5575" x="486.6349 494.6349">b3</tspan></text>
<path transform="matrix(1,0,0,-1,0,435)" d="M 171.1349 72.36806 L 316.1349 72.36806 L 316.1349 100.36806 L 171.1349 100.36806 Z " fill="#ffffff"/>
<path transform="matrix(1,0,0,1,-317,-376)" stroke-width="1" stroke-linecap="round" stroke-linejoin="round" fill="none" stroke="#000000" d="M 488.1349 710.6319 L 633.1349 710.6319 L 633.1349 738.6319 L 488.1349 738.6319 Z "/>
<text xml:space="preserve" transform="matrix(1 0 0 1 -317 -376)" font-size="18" font-family="Inconsolata"><tspan y="730.6319" x="493.1349 502.1349 511.1349 520.1349 529.1349 538.1349 547.1349 556.1349 565.1349 574.1349 583.1349 592.1349 601.1349 610.1349 619.1349">_8 = unwrap(_7)</tspan></text>
<text xml:space="preserve" transform="matrix(1 0 0 1 -317 -376)" font-size="16" font-family="Inconsolata"><tspan y="707.5575" x="488.6349 496.6349">b4</tspan></text>
<path transform="matrix(1,0,0,-1,0,435)" d="M 192.1349 1.265873 L 292.1349 1.265873 L 292.1349 47.265874 L 192.1349 47.265874 Z " fill="#ffffff"/>
<path transform="matrix(1,0,0,1,-317,-376)" stroke-width="1" stroke-linecap="round" stroke-linejoin="round" fill="none" stroke="#000000" d="M 509.1349 763.7341 L 609.1349 763.7341 L 609.1349 809.7341 L 509.1349 809.7341 Z "/>
<text xml:space="preserve" transform="matrix(1 0 0 1 -317 -376)" font-size="18" font-family="Inconsolata"><tspan y="783.7341" x="514.1349 523.1349 532.1349 541.1349 550.1349 559.1349 568.1349 577.1349 586.1349 595.1349">_9 = (*_8)</tspan></text>
<text xml:space="preserve" transform="matrix(1 0 0 1 -317 -376)" font-size="18" font-family="Inconsolata" font-weight="bold"><tspan y="801.7341" x="514.1349 523.1349 532.1349 541.1349 550.1349 559.1349 568.1349">return </tspan></text>
<text xml:space="preserve" transform="matrix(1 0 0 1 -317 -376)" font-size="18" font-family="Inconsolata"><tspan y="801.7341" x="577.1349 586.1349">_9</tspan></text>
<text xml:space="preserve" transform="matrix(1 0 0 1 -317 -376)" font-size="16" font-family="Inconsolata"><tspan y="759.7341" x="509 517">b5</tspan></text>
<path transform="matrix(1,0,0,1,-317,-376)" stroke-width="1" stroke-linecap="round" stroke-linejoin="round" fill="none" stroke="#000000" d="M 355 628.9702 L 437 628.9702 L 437 656.9702 L 355 656.9702 Z "/>
<text xml:space="preserve" transform="matrix(1 0 0 1 -317 -376)" font-size="18" font-family="Inconsolata" font-weight="bold"><tspan y="648.9702" x="360 369 378 387 396 405">return</tspan></text>
<text xml:space="preserve" transform="matrix(1 0 0 1 -317 -376)" font-size="18" font-family="Inconsolata"><tspan y="648.9702" x="414 423"> 0</tspan></text>
<text xml:space="preserve" transform="matrix(1 0 0 1 -317 -376)" font-size="16" font-family="Inconsolata"><tspan y="624.3512" x="356 364">b6</tspan></text>
</g>
</g>
</svg>
